<mxfile host="app.diagrams.net" modified="2023-04-19T12:48:53.603Z" agent="Mozilla/5.0 (Windows NT 10.0; Win64; x64) AppleWebKit/537.36 (KHTML, like Gecko) Chrome/112.0.0.0 Safari/537.36 Edg/112.0.1722.48" version="21.2.0" etag="NOrweZPssU2wHwhJ9n3L" type="device">
  <diagram id="aIo6wTuLvT1FLmJskfUq" name="Page-1">
    <mxGraphModel dx="1900" dy="549" grid="1" gridSize="10" guides="1" tooltips="1" connect="1" arrows="1" fold="1" page="1" pageScale="1" pageWidth="850" pageHeight="1100" math="0" shadow="0">
      <root>
        <mxCell id="0" />
        <mxCell id="1" parent="0" />
        <mxCell id="2" value="Mian.main()&lt;font face=&quot;Consolas, Courier New, monospace&quot; color=&quot;#d4d4d4&quot;&gt;&lt;span style=&quot;font-size: 14px; background-color: rgb(30, 30, 30);&quot;&gt;&lt;br&gt;&lt;/span&gt;&lt;/font&gt;&lt;font color=&quot;#0000cc&quot;&gt;启动界面&lt;/font&gt;" style="rounded=0;whiteSpace=wrap;html=1;" parent="1" vertex="1">
          <mxGeometry x="340" y="70" width="120" height="60" as="geometry" />
        </mxCell>
        <mxCell id="_uCWu2HYmTWSB8-QonlO-6" value="GerenalUser.menu()&lt;br&gt;&lt;font color=&quot;#0000cc&quot;&gt;普通用户菜单&lt;/font&gt;" style="rounded=0;whiteSpace=wrap;html=1;" vertex="1" parent="1">
          <mxGeometry x="200" y="210" width="120" height="60" as="geometry" />
        </mxCell>
        <mxCell id="_uCWu2HYmTWSB8-QonlO-7" value="Adminstrator.menu()&lt;br&gt;&lt;font color=&quot;#0000cc&quot;&gt;管理员菜单&lt;/font&gt;" style="rounded=0;whiteSpace=wrap;html=1;" vertex="1" parent="1">
          <mxGeometry x="480" y="210" width="120" height="60" as="geometry" />
        </mxCell>
        <mxCell id="_uCWu2HYmTWSB8-QonlO-13" value="" style="endArrow=none;html=1;rounded=0;exitX=0.5;exitY=0;exitDx=0;exitDy=0;entryX=0.5;entryY=1;entryDx=0;entryDy=0;" edge="1" parent="1" source="_uCWu2HYmTWSB8-QonlO-6" target="2">
          <mxGeometry width="50" height="50" relative="1" as="geometry">
            <mxPoint x="310" y="200" as="sourcePoint" />
            <mxPoint x="360" y="150" as="targetPoint" />
          </mxGeometry>
        </mxCell>
        <mxCell id="_uCWu2HYmTWSB8-QonlO-14" value="" style="endArrow=none;html=1;rounded=0;entryX=0.5;entryY=1;entryDx=0;entryDy=0;exitX=0.5;exitY=0;exitDx=0;exitDy=0;" edge="1" parent="1" source="_uCWu2HYmTWSB8-QonlO-7" target="2">
          <mxGeometry width="50" height="50" relative="1" as="geometry">
            <mxPoint x="400" y="230" as="sourcePoint" />
            <mxPoint x="450" y="180" as="targetPoint" />
          </mxGeometry>
        </mxCell>
        <mxCell id="_uCWu2HYmTWSB8-QonlO-15" value="User.show()&lt;br&gt;&lt;font color=&quot;#0000cc&quot;&gt;显示所有图书&lt;/font&gt;" style="rounded=0;whiteSpace=wrap;html=1;" vertex="1" parent="1">
          <mxGeometry x="130" y="370" width="120" height="60" as="geometry" />
        </mxCell>
        <mxCell id="_uCWu2HYmTWSB8-QonlO-16" value="User.query()&lt;br&gt;&lt;font color=&quot;#0000cc&quot;&gt;查找图书&lt;/font&gt;" style="rounded=0;whiteSpace=wrap;html=1;" vertex="1" parent="1">
          <mxGeometry x="270" y="370" width="120" height="60" as="geometry" />
        </mxCell>
        <mxCell id="_uCWu2HYmTWSB8-QonlO-17" value="User.importData()&lt;br&gt;&lt;font color=&quot;#0000cc&quot;&gt;导入数据&lt;/font&gt;" style="rounded=0;whiteSpace=wrap;html=1;" vertex="1" parent="1">
          <mxGeometry x="410" y="370" width="120" height="60" as="geometry" />
        </mxCell>
        <mxCell id="_uCWu2HYmTWSB8-QonlO-18" value="User.exportData()&lt;br&gt;&lt;font color=&quot;#0000cc&quot;&gt;导出数据&lt;/font&gt;" style="rounded=0;whiteSpace=wrap;html=1;" vertex="1" parent="1">
          <mxGeometry x="550" y="370" width="120" height="60" as="geometry" />
        </mxCell>
        <mxCell id="_uCWu2HYmTWSB8-QonlO-24" value="" style="endArrow=none;html=1;rounded=0;exitX=0.5;exitY=1;exitDx=0;exitDy=0;entryX=0.5;entryY=0;entryDx=0;entryDy=0;" edge="1" parent="1" source="_uCWu2HYmTWSB8-QonlO-6" target="_uCWu2HYmTWSB8-QonlO-15">
          <mxGeometry width="50" height="50" relative="1" as="geometry">
            <mxPoint x="400" y="310" as="sourcePoint" />
            <mxPoint x="450" y="260" as="targetPoint" />
          </mxGeometry>
        </mxCell>
        <mxCell id="_uCWu2HYmTWSB8-QonlO-25" value="GerenalUser.&lt;br&gt;returnBook()&lt;br&gt;&lt;font color=&quot;#0000cc&quot;&gt;归还图书&lt;/font&gt;" style="rounded=0;whiteSpace=wrap;html=1;" vertex="1" parent="1">
          <mxGeometry x="-10" y="370" width="120" height="60" as="geometry" />
        </mxCell>
        <mxCell id="_uCWu2HYmTWSB8-QonlO-26" value="GerenalUser.&lt;br&gt;BorrowBook()&lt;br&gt;&lt;font color=&quot;#0000cc&quot;&gt;借阅图书&lt;/font&gt;" style="rounded=0;whiteSpace=wrap;html=1;" vertex="1" parent="1">
          <mxGeometry x="-150" y="370" width="120" height="60" as="geometry" />
        </mxCell>
        <mxCell id="_uCWu2HYmTWSB8-QonlO-27" value="Administrator.add()&lt;br&gt;&lt;font color=&quot;#0000cc&quot;&gt;添加图书&lt;/font&gt;" style="rounded=0;whiteSpace=wrap;html=1;" vertex="1" parent="1">
          <mxGeometry x="690" y="370" width="120" height="60" as="geometry" />
        </mxCell>
        <mxCell id="_uCWu2HYmTWSB8-QonlO-28" value="Administartor.del()&lt;br&gt;&lt;font color=&quot;#0000cc&quot;&gt;删除图书&lt;/font&gt;" style="rounded=0;whiteSpace=wrap;html=1;" vertex="1" parent="1">
          <mxGeometry x="830" y="370" width="120" height="60" as="geometry" />
        </mxCell>
        <mxCell id="_uCWu2HYmTWSB8-QonlO-29" value="Administrator.mod()&lt;br&gt;&lt;font color=&quot;#0000cc&quot;&gt;修改图书&lt;/font&gt;" style="rounded=0;whiteSpace=wrap;html=1;" vertex="1" parent="1">
          <mxGeometry x="970" y="370" width="120" height="60" as="geometry" />
        </mxCell>
        <mxCell id="_uCWu2HYmTWSB8-QonlO-30" value="" style="endArrow=none;html=1;rounded=0;exitX=0.5;exitY=0;exitDx=0;exitDy=0;" edge="1" parent="1" source="_uCWu2HYmTWSB8-QonlO-26">
          <mxGeometry width="50" height="50" relative="1" as="geometry">
            <mxPoint x="360" y="300" as="sourcePoint" />
            <mxPoint x="260" y="270" as="targetPoint" />
          </mxGeometry>
        </mxCell>
        <mxCell id="_uCWu2HYmTWSB8-QonlO-31" value="" style="endArrow=none;html=1;rounded=0;exitX=0.5;exitY=1;exitDx=0;exitDy=0;entryX=0.5;entryY=0;entryDx=0;entryDy=0;" edge="1" parent="1" source="_uCWu2HYmTWSB8-QonlO-6" target="_uCWu2HYmTWSB8-QonlO-25">
          <mxGeometry width="50" height="50" relative="1" as="geometry">
            <mxPoint x="360" y="300" as="sourcePoint" />
            <mxPoint x="410" y="250" as="targetPoint" />
          </mxGeometry>
        </mxCell>
        <mxCell id="_uCWu2HYmTWSB8-QonlO-32" value="" style="endArrow=none;html=1;rounded=0;exitX=0.5;exitY=1;exitDx=0;exitDy=0;entryX=0.5;entryY=0;entryDx=0;entryDy=0;" edge="1" parent="1" source="_uCWu2HYmTWSB8-QonlO-6" target="_uCWu2HYmTWSB8-QonlO-16">
          <mxGeometry width="50" height="50" relative="1" as="geometry">
            <mxPoint x="360" y="300" as="sourcePoint" />
            <mxPoint x="410" y="250" as="targetPoint" />
          </mxGeometry>
        </mxCell>
        <mxCell id="_uCWu2HYmTWSB8-QonlO-33" value="" style="endArrow=none;html=1;rounded=0;exitX=0.5;exitY=1;exitDx=0;exitDy=0;entryX=0.5;entryY=0;entryDx=0;entryDy=0;" edge="1" parent="1" source="_uCWu2HYmTWSB8-QonlO-6" target="_uCWu2HYmTWSB8-QonlO-17">
          <mxGeometry width="50" height="50" relative="1" as="geometry">
            <mxPoint x="360" y="300" as="sourcePoint" />
            <mxPoint x="410" y="250" as="targetPoint" />
          </mxGeometry>
        </mxCell>
        <mxCell id="_uCWu2HYmTWSB8-QonlO-34" value="" style="endArrow=none;html=1;rounded=0;entryX=0.5;entryY=1;entryDx=0;entryDy=0;exitX=0.5;exitY=0;exitDx=0;exitDy=0;" edge="1" parent="1" source="_uCWu2HYmTWSB8-QonlO-17" target="_uCWu2HYmTWSB8-QonlO-7">
          <mxGeometry width="50" height="50" relative="1" as="geometry">
            <mxPoint x="360" y="300" as="sourcePoint" />
            <mxPoint x="410" y="250" as="targetPoint" />
          </mxGeometry>
        </mxCell>
        <mxCell id="_uCWu2HYmTWSB8-QonlO-35" value="" style="endArrow=none;html=1;rounded=0;exitX=0.5;exitY=1;exitDx=0;exitDy=0;entryX=0.5;entryY=0;entryDx=0;entryDy=0;" edge="1" parent="1" source="_uCWu2HYmTWSB8-QonlO-6" target="_uCWu2HYmTWSB8-QonlO-18">
          <mxGeometry width="50" height="50" relative="1" as="geometry">
            <mxPoint x="360" y="300" as="sourcePoint" />
            <mxPoint x="410" y="250" as="targetPoint" />
          </mxGeometry>
        </mxCell>
        <mxCell id="_uCWu2HYmTWSB8-QonlO-36" value="" style="endArrow=none;html=1;rounded=0;exitX=0.5;exitY=1;exitDx=0;exitDy=0;entryX=0.5;entryY=0;entryDx=0;entryDy=0;" edge="1" parent="1" source="_uCWu2HYmTWSB8-QonlO-7" target="_uCWu2HYmTWSB8-QonlO-15">
          <mxGeometry width="50" height="50" relative="1" as="geometry">
            <mxPoint x="360" y="300" as="sourcePoint" />
            <mxPoint x="410" y="250" as="targetPoint" />
          </mxGeometry>
        </mxCell>
        <mxCell id="_uCWu2HYmTWSB8-QonlO-37" value="" style="endArrow=none;html=1;rounded=0;exitX=0.5;exitY=1;exitDx=0;exitDy=0;entryX=0.5;entryY=0;entryDx=0;entryDy=0;" edge="1" parent="1" source="_uCWu2HYmTWSB8-QonlO-7" target="_uCWu2HYmTWSB8-QonlO-16">
          <mxGeometry width="50" height="50" relative="1" as="geometry">
            <mxPoint x="360" y="300" as="sourcePoint" />
            <mxPoint x="410" y="250" as="targetPoint" />
          </mxGeometry>
        </mxCell>
        <mxCell id="_uCWu2HYmTWSB8-QonlO-38" value="" style="endArrow=none;html=1;rounded=0;exitX=0.5;exitY=1;exitDx=0;exitDy=0;entryX=0.5;entryY=0;entryDx=0;entryDy=0;" edge="1" parent="1" source="_uCWu2HYmTWSB8-QonlO-7" target="_uCWu2HYmTWSB8-QonlO-18">
          <mxGeometry width="50" height="50" relative="1" as="geometry">
            <mxPoint x="360" y="300" as="sourcePoint" />
            <mxPoint x="410" y="250" as="targetPoint" />
          </mxGeometry>
        </mxCell>
        <mxCell id="_uCWu2HYmTWSB8-QonlO-39" value="" style="endArrow=none;html=1;rounded=0;exitX=0.5;exitY=1;exitDx=0;exitDy=0;entryX=0.424;entryY=-0.043;entryDx=0;entryDy=0;entryPerimeter=0;" edge="1" parent="1" source="_uCWu2HYmTWSB8-QonlO-7" target="_uCWu2HYmTWSB8-QonlO-27">
          <mxGeometry width="50" height="50" relative="1" as="geometry">
            <mxPoint x="650" y="300" as="sourcePoint" />
            <mxPoint x="700" y="250" as="targetPoint" />
          </mxGeometry>
        </mxCell>
        <mxCell id="_uCWu2HYmTWSB8-QonlO-40" value="" style="endArrow=none;html=1;rounded=0;exitX=0.5;exitY=1;exitDx=0;exitDy=0;entryX=0.437;entryY=-0.03;entryDx=0;entryDy=0;entryPerimeter=0;" edge="1" parent="1" source="_uCWu2HYmTWSB8-QonlO-7" target="_uCWu2HYmTWSB8-QonlO-28">
          <mxGeometry width="50" height="50" relative="1" as="geometry">
            <mxPoint x="650" y="300" as="sourcePoint" />
            <mxPoint x="700" y="250" as="targetPoint" />
          </mxGeometry>
        </mxCell>
        <mxCell id="_uCWu2HYmTWSB8-QonlO-41" value="" style="endArrow=none;html=1;rounded=0;exitX=0.5;exitY=1;exitDx=0;exitDy=0;entryX=0.5;entryY=0;entryDx=0;entryDy=0;" edge="1" parent="1" source="_uCWu2HYmTWSB8-QonlO-7" target="_uCWu2HYmTWSB8-QonlO-29">
          <mxGeometry width="50" height="50" relative="1" as="geometry">
            <mxPoint x="650" y="300" as="sourcePoint" />
            <mxPoint x="700" y="250" as="targetPoint" />
          </mxGeometry>
        </mxCell>
      </root>
    </mxGraphModel>
  </diagram>
</mxfile>
